<svg width="46" height="38" viewBox="0 0 46 38" fill="none" xmlns="http://www.w3.org/2000/svg">
<g clip-path="url(#clip0_905_237)">
<path d="M23 37.3829C35.7025 37.3829 46 29.1002 46 18.8829C46 8.66567 35.7025 0.382935 23 0.382935C10.2975 0.382935 0 8.66567 0 18.8829C0 29.1002 10.2975 37.3829 23 37.3829Z" fill="#291159"/>
<path d="M23 31.4218C31.6094 31.4218 38.5888 25.808 38.5888 18.883C38.5888 11.9579 31.6094 6.34412 23 6.34412C14.3905 6.34412 7.41113 11.9579 7.41113 18.883C7.41113 25.808 14.3905 31.4218 23 31.4218Z" fill="white"/>
<path d="M21.5572 27.3929C19.7684 26.8333 18.5022 25.917 17.8904 24.4468C19.6747 24.5559 21.3502 25.893 21.5572 27.3929ZM28.889 26.4517C30.6255 25.6488 32.358 25.3773 34.2492 25.9235C33.481 26.7574 30.5197 27.1108 28.889 26.4517V26.4517ZM31.1804 22.692C31.2621 24.0171 29.8205 25.8264 28.3629 26.2574C28.0409 25.3033 29.6003 23.3072 31.1804 22.692ZM31.3374 27.7828C29.4353 28.2365 27.681 28.0755 26.0089 27.1436C27.5608 26.5548 30.4749 26.8772 31.3374 27.7828ZM19.6563 26.8564C19.0508 27.6061 16.2638 28.2291 14.4537 27.7351C15.2184 26.7556 18.539 26.4503 19.6563 26.8564ZM17.5029 26.1289C15.9906 25.6354 14.6658 23.7391 14.7935 22.55C16.0579 22.8659 17.5161 24.777 17.5029 26.1289V26.1289ZM23.6606 27.2879C24.4943 25.8713 25.8852 25.0304 27.7362 24.6655L27.8759 24.7511C27.6976 25.0041 27.5556 25.2806 27.3337 25.5063C26.5862 26.2676 25.6259 26.8161 24.5162 27.1811C24.2545 27.2666 23.9412 27.2481 23.6485 27.2768L23.6606 27.2879ZM11.5781 25.9591C13.0012 25.3255 15.7543 25.276 16.8158 26.0516C15.0942 26.7394 12.9259 26.7065 11.5781 25.9591V25.9591ZM13.9149 13.9744C14.2829 12.5513 15.0816 11.3733 16.6007 10.5153C16.7082 12.0448 15.8509 13.4527 13.9149 13.9744V13.9744ZM10.9306 23.2304C12.3469 22.8604 14.6009 23.7086 15.2345 24.8524C13.7694 25.1599 11.3786 24.1508 10.9306 23.2304V23.2304ZM35.3572 23.4908C34.8236 24.462 32.3408 25.449 30.867 25.159C31.2391 24.252 33.6995 23.328 35.3572 23.4908V23.4908ZM30.5002 10.2998C31.6444 11.4431 32.0354 12.7363 32.0027 14.1612C30.56 13.5216 29.7274 11.561 30.5002 10.2998V10.2998ZM33.88 21.41C33.7771 20.3065 35.26 18.6951 36.6544 18.3903C37.0299 19.3264 35.0875 21.2106 33.88 21.41ZM16.2925 13.5891C16.254 14.6126 14.3622 16.0866 12.8339 16.285C13.088 15.0723 14.7624 13.7672 16.2925 13.5891ZM29.9263 13.7667C31.4788 14.034 33.0888 15.3466 33.3137 16.5274C32.2384 16.6462 30.1207 14.9868 29.9263 13.7667ZM12.9414 14.9604C12.1726 14.0428 12.3244 12.1655 13.2289 11.1596C14.1397 12.2835 14.0397 13.7274 12.9414 14.9604ZM9.41724 18.0504C10.6742 18.2012 12.0582 19.7515 12.1772 21.1029C10.8846 20.9082 9.68921 19.5979 9.41724 18.0504ZM35.0559 13.6673C35.6522 14.8286 35.3814 16.3567 34.0301 17.3058C33.4862 16.4612 33.8806 14.4068 35.0559 13.6673ZM12.0502 17.075C10.8582 15.9395 10.5776 14.7023 11.1647 13.319C12.2819 14.1085 12.7436 16.0094 12.0502 17.075ZM13.0834 19.541C14.0063 20.1043 14.6313 22.0973 13.9643 23.285C12.9374 22.7443 12.463 20.7962 13.0834 19.541ZM31.94 23.476C31.3403 22.0635 31.879 20.8716 32.8899 19.7154C33.5799 20.8582 33.2659 22.4108 31.94 23.476Z" fill="#291159"/>
<path d="M32.906 23.0722C33.3764 21.9058 35.5798 20.6566 36.7626 20.867C36.3727 21.9197 34.2004 23.1768 32.906 23.0722ZM9.39946 15.4317C10.8525 16.0612 11.8277 17.4843 11.6862 18.7303C10.3281 18.2632 9.20453 16.6629 9.39946 15.4317ZM34.3936 19.0679C34.0261 18.222 35.4619 16.1403 36.6999 15.8429C37.0478 16.8017 35.6649 18.7381 34.3936 19.0679ZM33.2407 15.1852C32.3063 14.2043 32.2321 12.5134 33.0573 11.4686C34.0399 12.3432 34.1371 14.1067 33.2407 15.1852ZM12.9679 22.8035C11.1894 22.5723 9.9204 21.8466 9.2373 20.504C10.8496 20.4961 12.5315 21.7666 12.9679 22.8035ZM14.0552 16.2277C14.3956 17.4256 13.4923 19.0489 12.2388 19.5406C11.8352 18.5129 12.6586 16.9922 14.0552 16.2277ZM33.8548 19.7991C32.4541 19.1336 31.7054 17.6656 32.1171 16.4548C33.1705 16.8664 34.0267 18.4935 33.8548 19.7991ZM21.2836 29.069C21.9736 29.4483 23.081 29.4649 23.9608 29.1153C24.8928 28.8882 25.7404 28.4617 26.5287 27.861C25.2833 27.5173 23.8193 27.7361 22.7504 28.3295C22.69 28.2963 22.6284 28.2645 22.5658 28.2342L22.5083 28.2064C22.3204 28.1172 22.1248 28.039 21.923 27.9724C21.8942 27.9627 21.8655 27.953 21.8367 27.9442C21.7792 27.9257 21.7171 27.9077 21.6567 27.891C21.6211 27.8813 21.5854 27.873 21.5492 27.8637C21.4572 27.8406 21.3642 27.8198 21.2703 27.8013C21.222 27.792 21.1737 27.7823 21.1249 27.7745C21.076 27.7666 21.0265 27.7587 20.9771 27.7518C20.9196 27.7439 20.8621 27.737 20.8011 27.731C20.762 27.7268 20.7224 27.7217 20.6827 27.7185C20.5895 27.7111 20.497 27.7065 20.4044 27.7042H20.2974C20.2261 27.7042 20.1548 27.7042 20.0841 27.7079C20.0531 27.7079 20.022 27.7079 19.991 27.7116C19.8932 27.7171 19.796 27.7259 19.7 27.7379L19.6373 27.7472C19.5574 27.7583 19.4781 27.7722 19.3999 27.7874L19.3182 27.8045C19.2222 27.8258 19.1267 27.8508 19.0336 27.8776C19.1262 27.9558 19.2205 28.0298 19.3159 28.1005C19.3441 28.1218 19.3734 28.1412 19.4016 28.1616C19.4712 28.2115 19.5413 28.2601 19.6126 28.3063C19.6431 28.3267 19.6747 28.3461 19.7058 28.3655C19.7786 28.4115 19.8526 28.4554 19.9277 28.4974C19.9547 28.5126 19.9812 28.5279 20.0088 28.5436C20.0985 28.592 20.1893 28.6383 20.2813 28.6824L20.317 28.6999M27.3906 16.3646C27.3906 16.3646 28.8483 15.9539 28.8805 14.2667C28.9155 12.4306 26.205 12.0823 24.9923 12.0712V10.0441H23.4438V12.0698H22.3301V10.0441H20.781V12.0698H17.561V13.3329C17.561 13.3329 18.9077 13.3528 19.3142 13.3482C19.6649 13.3445 19.6649 13.7644 19.6649 13.7644C19.6649 13.7644 19.6753 19.4069 19.6649 19.6881C19.65 20.0831 19.3596 20.1613 19.1014 20.1872C18.9088 20.1959 17.561 20.1872 17.561 20.1872V21.4822L20.781 21.4729V23.6106H22.3301V21.4678L23.4438 21.4646V23.6106H24.9923V21.46L26.1998 21.4563C26.9013 21.4563 29.6205 21.015 29.6205 18.6271C29.6228 16.6527 27.3906 16.3646 27.3906 16.3646ZM22.3306 13.4883H24.1057C24.1057 13.4883 25.8479 13.4883 25.8801 14.6043C25.9123 15.7203 24.9118 16.0316 24.5248 16.0316H22.3301L22.3306 13.4883ZM24.6209 20.0808H22.3301V17.3294H24.7502C24.7502 17.3294 26.6546 17.3192 26.6541 18.5494C26.6535 19.9772 25.1694 20.0808 24.6209 20.0808V20.0808Z" fill="#291159"/>
</g>
<defs>
<clipPath id="clip0_905_237">
<rect width="46" height="37" fill="white" transform="translate(0 0.382935)"/>
</clipPath>
</defs>
</svg>
