<svg width="88" height="62" viewBox="0 0 88 62" fill="none" xmlns="http://www.w3.org/2000/svg">
<g clip-path="url(#clip0_905_436)">
<path d="M0 0H88V62H0V0Z" fill="#8A05BE"/>
<path d="M64.9595 35.9066C64.9595 36.8886 63.2965 38.0958 61.9439 38.0958H60.7123C60.7136 32.0858 60.7136 25.348 60.7123 24.1521C60.7118 24.1167 60.7212 24.0815 60.74 24.0487C60.7587 24.0158 60.7865 23.9859 60.8218 23.9606C60.857 23.9354 60.8989 23.9152 60.9452 23.9014C60.9915 23.8876 61.0412 23.8803 61.0914 23.88H64.5787C64.7881 23.88 64.9597 24.0039 64.9597 24.1542V35.9066H64.9595ZM59.2768 40.2047C59.2768 40.8264 58.8451 41.8677 55.9532 41.8677C50.3488 41.8677 46.9085 38.7742 46.9085 36.5556C46.9085 36.5556 46.9022 29.3817 46.9022 24.1543C46.9017 24.1189 46.9111 24.0837 46.9299 24.0508C46.9487 24.0179 46.9765 23.9879 47.0118 23.9626C47.0471 23.9373 47.0892 23.9172 47.1356 23.9034C47.182 23.8897 47.2318 23.8825 47.2821 23.8823H50.7735C50.9832 23.8823 51.1553 24.0053 51.1553 24.1566V35.6832C51.1553 37.5877 53.2947 39.1325 55.932 39.1325H59.2787L59.2768 40.2047ZM64.8434 22.8463H60.8262C59.9721 22.8463 59.2765 23.3489 59.2765 23.9655V38.097H55.9296C54.083 38.097 52.5864 37.016 52.5864 35.6829V23.9655C52.5864 23.3474 51.8918 22.8458 51.0359 22.8458H47.0171C46.1612 22.8458 45.4668 23.3474 45.4654 23.9655C45.4634 29.0748 45.4717 36.5558 45.4717 36.5558C45.4723 40.4881 51.576 42.9026 55.9521 42.9026C58.8873 42.9026 60.7104 41.8666 60.7104 40.1977V39.1322H61.9433C64.1058 39.1322 66.3931 37.4745 66.3931 35.9066V23.9655C66.3952 23.3474 65.7007 22.8458 64.8436 22.8458V22.8463H64.8434ZM41.1013 37.8457C41.1018 37.8812 41.0924 37.9163 41.0736 37.9491C41.0547 37.982 41.0269 38.0119 40.9916 38.0371C40.9563 38.0623 40.9143 38.0824 40.868 38.0961C40.8216 38.1099 40.7719 38.1171 40.7217 38.1172H37.2302C37.0178 38.1172 36.8475 37.9932 36.8485 37.8436V26.3169C36.8485 24.4125 34.7085 22.8677 32.0717 22.8677H28.7248V21.7952C28.7248 21.1749 29.1565 20.1322 32.0485 20.1322C37.653 20.1322 41.0943 23.2256 41.0943 25.4444C41.0943 25.4444 41.1006 32.653 41.1006 37.8456H41.1013V37.8457ZM23.4213 38.1196C23.2088 38.1152 23.0389 37.9946 23.0414 37.8449V26.0947C23.0414 25.1125 24.7046 23.9038 26.0567 23.9038H27.2894C27.2875 32.5103 27.2875 36.9142 27.2894 37.8444C27.2903 37.9163 27.2508 37.9855 27.1795 38.0369C27.1082 38.0883 27.0109 38.1177 26.9089 38.1187H23.4218L23.4213 38.1196ZM42.5273 25.4445C42.5281 21.5119 36.4241 19.0973 32.0487 19.0973C29.1126 19.0973 27.2894 20.1332 27.2894 21.8023V22.8677H26.0573C23.894 22.8677 21.6067 24.5254 21.6067 26.0935V38.0345C21.6067 38.6525 22.3012 39.1542 23.1566 39.1542H27.173C27.198 39.1542 27.2194 39.1494 27.2443 39.1494C28.0652 39.1215 28.7228 38.6345 28.7228 38.0345V23.903H32.0702C33.916 23.903 35.4134 24.9839 35.4134 26.317V38.0346C35.4134 38.6526 36.108 39.1543 36.9633 39.1543H40.9829C41.8387 39.1543 42.5328 38.654 42.5328 38.0346C42.5359 32.83 42.5279 25.4442 42.5279 25.4442L42.5273 25.4445Z" fill="white"/>
</g>
<defs>
<clipPath id="clip0_905_436">
<rect width="88" height="62" fill="white"/>
</clipPath>
</defs>
</svg>
